<?xml version="1.0" encoding="UTF-8" standalone="no"?>
<!-- Created with Inkscape (http://www.inkscape.org/) -->

<svg
   xmlns:dc="http://purl.org/dc/elements/1.1/"
   xmlns:cc="http://creativecommons.org/ns#"
   xmlns:rdf="http://www.w3.org/1999/02/22-rdf-syntax-ns#"
   xmlns:svg="http://www.w3.org/2000/svg"
   xmlns="http://www.w3.org/2000/svg"
   xmlns:sodipodi="http://sodipodi.sourceforge.net/DTD/sodipodi-0.dtd"
   xmlns:inkscape="http://www.inkscape.org/namespaces/inkscape"
   version="1.1"
   id="svg3767"
   width="2554.6667"
   height="969.33331"
   viewBox="0 0 2554.6667 969.33331"
   sodipodi:docname="prod-listings-manager.svg"
   inkscape:version="0.92.3 (2405546, 2018-03-11)"
   inkscape:export-filename="prod-listings-manager.png"
   inkscape:export-xdpi="36"
   inkscape:export-ydpi="36">
  <metadata
     id="metadata3773">
    <rdf:RDF>
      <cc:Work
         rdf:about="">
        <dc:format>image/svg+xml</dc:format>
        <dc:type
           rdf:resource="http://purl.org/dc/dcmitype/StillImage" />
        <dc:title></dc:title>
      </cc:Work>
    </rdf:RDF>
  </metadata>
  <defs
     id="defs3771">
    <marker
       inkscape:stockid="TriangleOutL"
       orient="auto"
       refY="0.0"
       refX="0.0"
       id="TriangleOutL"
       style="overflow:visible"
       inkscape:isstock="true">
      <path
         id="path4736"
         d="M 5.77,0.0 L -2.88,5.0 L -2.88,-5.0 L 5.77,0.0 z "
         style="fill-rule:evenodd;stroke:#000000;stroke-width:1pt;stroke-opacity:1;fill:#000000;fill-opacity:1"
         transform="scale(0.8)" />
    </marker>
    <marker
       inkscape:stockid="Arrow1Lend"
       orient="auto"
       refY="0.0"
       refX="0.0"
       id="Arrow1Lend"
       style="overflow:visible;"
       inkscape:isstock="true">
      <path
         id="path4597"
         d="M 0.0,0.0 L 5.0,-5.0 L -12.5,0.0 L 5.0,5.0 L 0.0,0.0 z "
         style="fill-rule:evenodd;stroke:#000000;stroke-width:1pt;stroke-opacity:1;fill:#000000;fill-opacity:1"
         transform="scale(0.8) rotate(180) translate(12.5,0)" />
    </marker>
    <marker
       inkscape:stockid="Arrow2Lend"
       orient="auto"
       refY="0.0"
       refX="0.0"
       id="Arrow2Lend"
       style="overflow:visible;"
       inkscape:isstock="true">
      <path
         id="path4615"
         style="fill-rule:evenodd;stroke-width:0.625;stroke-linejoin:round;stroke:#000000;stroke-opacity:1;fill:#000000;fill-opacity:1"
         d="M 8.7185878,4.0337352 L -2.2072895,0.016013256 L 8.7185884,-4.0017078 C 6.9730900,-1.6296469 6.9831476,1.6157441 8.7185878,4.0337352 z "
         transform="scale(1.1) rotate(180) translate(1,0)" />
    </marker>
  </defs>
  <sodipodi:namedview
     pagecolor="#f3f3f3"
     bordercolor="#666666"
     borderopacity="1"
     objecttolerance="10"
     gridtolerance="10"
     guidetolerance="10"
     inkscape:pageopacity="1"
     inkscape:pageshadow="2"
     inkscape:window-width="2560"
     inkscape:window-height="1522"
     id="namedview3769"
     showgrid="false"
     inkscape:zoom="0.66734123"
     inkscape:cx="1147.6003"
     inkscape:cy="275.68314"
     inkscape:window-x="0"
     inkscape:window-y="0"
     inkscape:window-maximized="1"
     inkscape:current-layer="svg3767" />
  <rect
     id="rect3785"
     width="782.2085"
     height="342.51288"
     x="563.51056"
     y="581.0946"
     style="fill:#d6d6d6;fill-opacity:1;stroke:#000000;stroke-width:4.83935547;stroke-miterlimit:4;stroke-dasharray:none;stroke-opacity:1" />
  <path
     sodipodi:nodetypes="cccccccc"
     inkscape:connector-curvature="0"
     id="path3787"
     d="m 610.08514,137.39081 v 33.83643 H 547.2611 v 55.43899 h 62.82404 V 264.106 l 67.60696,-63.35935 z"
     style="color:#000000;font-style:normal;font-variant:normal;font-weight:normal;font-stretch:normal;font-size:medium;line-height:normal;font-family:sans-serif;font-variant-ligatures:normal;font-variant-position:normal;font-variant-caps:normal;font-variant-numeric:normal;font-variant-alternates:normal;font-feature-settings:normal;text-indent:0;text-align:start;text-decoration:none;text-decoration-line:none;text-decoration-style:solid;text-decoration-color:#000000;letter-spacing:normal;word-spacing:normal;text-transform:none;writing-mode:lr-tb;direction:ltr;text-orientation:mixed;dominant-baseline:auto;baseline-shift:baseline;text-anchor:start;white-space:normal;shape-padding:0;clip-rule:nonzero;display:inline;overflow:visible;visibility:visible;opacity:1;isolation:auto;mix-blend-mode:normal;color-interpolation:sRGB;color-interpolation-filters:linearRGB;solid-color:#000000;solid-opacity:1;vector-effect:none;fill:#000000;fill-opacity:1;fill-rule:nonzero;stroke:none;stroke-width:15.8393116;stroke-linecap:butt;stroke-linejoin:miter;stroke-miterlimit:4;stroke-dasharray:none;stroke-dashoffset:0;stroke-opacity:1;color-rendering:auto;image-rendering:auto;shape-rendering:auto;text-rendering:auto;enable-background:accumulate" />
  <path
     sodipodi:nodetypes="cccccccc"
     inkscape:connector-curvature="0"
     id="path3787-3"
     d="m 1185.9486,138.75202 v 33.83642 h -62.824 v 55.439 h 62.824 v 37.43977 l 67.607,-63.35935 z"
     style="color:#000000;font-style:normal;font-variant:normal;font-weight:normal;font-stretch:normal;font-size:medium;line-height:normal;font-family:sans-serif;font-variant-ligatures:normal;font-variant-position:normal;font-variant-caps:normal;font-variant-numeric:normal;font-variant-alternates:normal;font-feature-settings:normal;text-indent:0;text-align:start;text-decoration:none;text-decoration-line:none;text-decoration-style:solid;text-decoration-color:#000000;letter-spacing:normal;word-spacing:normal;text-transform:none;writing-mode:lr-tb;direction:ltr;text-orientation:mixed;dominant-baseline:auto;baseline-shift:baseline;text-anchor:start;white-space:normal;shape-padding:0;clip-rule:nonzero;display:inline;overflow:visible;visibility:visible;opacity:1;isolation:auto;mix-blend-mode:normal;color-interpolation:sRGB;color-interpolation-filters:linearRGB;solid-color:#000000;solid-opacity:1;vector-effect:none;fill:#000000;fill-opacity:1;fill-rule:nonzero;stroke:none;stroke-width:15.8393116;stroke-linecap:butt;stroke-linejoin:miter;stroke-miterlimit:4;stroke-dasharray:none;stroke-dashoffset:0;stroke-opacity:1;color-rendering:auto;image-rendering:auto;shape-rendering:auto;text-rendering:auto;enable-background:accumulate" />
  <path
     sodipodi:nodetypes="cccccccc"
     inkscape:connector-curvature="0"
     id="path3787-5"
     d="m 1911.1662,135.75506 v 33.83642 h -62.8241 v 55.439 h 62.8241 v 37.43977 l 67.6069,-63.35935 z"
     style="color:#000000;font-style:normal;font-variant:normal;font-weight:normal;font-stretch:normal;font-size:medium;line-height:normal;font-family:sans-serif;font-variant-ligatures:normal;font-variant-position:normal;font-variant-caps:normal;font-variant-numeric:normal;font-variant-alternates:normal;font-feature-settings:normal;text-indent:0;text-align:start;text-decoration:none;text-decoration-line:none;text-decoration-style:solid;text-decoration-color:#000000;letter-spacing:normal;word-spacing:normal;text-transform:none;writing-mode:lr-tb;direction:ltr;text-orientation:mixed;dominant-baseline:auto;baseline-shift:baseline;text-anchor:start;white-space:normal;shape-padding:0;clip-rule:nonzero;display:inline;overflow:visible;visibility:visible;opacity:1;isolation:auto;mix-blend-mode:normal;color-interpolation:sRGB;color-interpolation-filters:linearRGB;solid-color:#000000;solid-opacity:1;vector-effect:none;fill:#000000;fill-opacity:1;fill-rule:nonzero;stroke:none;stroke-width:15.8393116;stroke-linecap:butt;stroke-linejoin:miter;stroke-miterlimit:4;stroke-dasharray:none;stroke-dashoffset:0;stroke-opacity:1;color-rendering:auto;image-rendering:auto;shape-rendering:auto;text-rendering:auto;enable-background:accumulate" />
  <g
     id="g6116"
     transform="matrix(3.2783388,0,0,3.2783388,-18.986643,415.20292)">
	<g
   id="g6114">
		<g
   id="g6112">
			<path
   id="path6108"
   d="M 100.874,80.862 C 98.765,51.126 75.132,51.993 74.956,52.006 60.613,51.737 54.485,57.33 53.598,58.221 52.709,58.76 52.54,59.792 52.588,60.408 L 52.057,67.4 c -0.004,0.048 0.013,0.09 0.017,0.136 -3.205,5.348 -3.705,10.856 -3.771,12.954 -0.054,0.012 -0.107,0.025 -0.159,0.047 l -8.723,3.893 c -0.394,0.176 -0.602,0.611 -0.488,1.029 0.309,1.133 1.527,3.018 4.066,3.018 0.357,0 0.742,-0.037 1.155,-0.119 0.057,-0.016 5.751,-1.453 12.539,-1.584 l 17.29,-0.133 c 0.75,0.014 18.443,0.35 25.672,-1.307 1.222,-0.219 3.291,-0.793 3.42,-2.166 0.104,-1.099 -1.029,-1.806 -2.201,-2.306 z m -1.568,2.756 c -7.062,1.617 -25.108,1.273 -25.312,1.271 L 56.67,85.022 c -7,0.137 -12.71,1.576 -12.903,1.627 -1.621,0.326 -2.438,-0.381 -2.831,-0.98 l 7.497,-3.346 c 2.177,1.197 5.638,0.967 5.795,0.957 0.481,-0.033 0.845,-0.451 0.811,-0.934 -0.033,-0.482 -0.442,-0.832 -0.934,-0.812 -0.764,0.053 -2.646,0.037 -4.065,-0.428 -0.051,-2.182 0.158,-20.999 22.43,-23.782 0.479,-0.06 0.82,-0.497 0.76,-0.977 -0.061,-0.479 -0.502,-0.823 -0.977,-0.76 -9.098,1.137 -14.736,4.888 -18.241,9.188 l 0.328,-4.312 c 0.005,-0.059 0.003,-0.117 -0.005,-0.176 0,-0.004 -0.03,-0.472 0.194,-0.583 0.094,-0.047 0.181,-0.113 0.253,-0.191 0.055,-0.059 5.771,-6.047 20.204,-5.76 0.904,-0.054 22.044,-0.81 24.125,27.015 -1.274,0.262 -3.914,0.762 -5.515,0.762 -0.483,0 -0.875,0.393 -0.875,0.875 0,0.484 0.392,0.875 0.875,0.875 2.039,0 5.398,-0.691 6.37,-0.902 0.686,0.277 1.041,0.494 1.221,0.631 -0.37,0.217 -1.151,0.476 -1.881,0.609 z"
   inkscape:connector-curvature="0" />

			<path
   id="path6110"
   d="m 87.783,67.971 c -0.395,0.126 -0.612,0.548 -0.486,0.943 0.024,0.077 2.476,7.827 1.941,12.538 -0.226,0.092 -0.837,0.258 -2.337,0.258 -2.641,0 -6.383,-0.035 -7.955,-0.053 v -1.27 c 0,-0.414 -0.336,-0.75 -0.75,-0.75 h -7.852 c -0.414,0 -0.75,0.336 -0.75,0.75 v 1.285 c -3.327,0.094 -6.619,-0.021 -6.67,-0.023 -2.597,-0.029 -3.437,-0.359 -3.674,-0.496 0.008,-5.855 1.553,-10.325 1.568,-10.369 0.137,-0.391 -0.068,-0.819 -0.459,-0.956 -0.389,-0.138 -0.818,0.067 -0.957,0.458 -0.066,0.191 -1.645,4.742 -1.652,10.863 -0.037,0.225 -0.006,0.502 0.169,0.775 0.351,0.547 1.233,1.182 4.97,1.225 0.038,0.002 3.874,0.135 7.482,0 0.403,-0.016 0.723,-0.346 0.723,-0.75 v -1.262 h 6.352 v 1.262 c 0,0.412 0.33,0.746 0.741,0.75 0,0 5.284,0.061 8.714,0.061 2.141,0 3.28,-0.305 3.691,-0.986 0.148,-0.244 0.178,-0.492 0.147,-0.703 0.526,-5.027 -1.908,-12.734 -2.014,-13.063 -0.124,-0.394 -0.546,-0.611 -0.942,-0.487 z"
   inkscape:connector-curvature="0" />

		</g>

	</g>

</g>
  <text
     xml:space="preserve"
     style="font-style:normal;font-weight:normal;font-size:99.95944214px;line-height:1.25;font-family:sans-serif;letter-spacing:0px;word-spacing:0px;fill:#000000;fill-opacity:1;stroke:none;stroke-width:2.49898601"
     x="110.61996"
     y="804.8537"
     id="text6132"><tspan
       sodipodi:role="line"
       id="tspan6130"
       x="110.61996"
       y="804.8537"
       style="stroke-width:2.49898601">RCM</tspan></text>
  <g
     id="g6229"
     transform="translate(33.587524)">
    <rect
       style="fill:#f6c764;fill-opacity:1;stroke:#000000;stroke-width:5;stroke-miterlimit:4;stroke-dasharray:none;stroke-opacity:1"
       y="17.074289"
       x="661.33093"
       height="382.11337"
       width="410.58456"
       id="rect3779" />
    <text
       id="text6132-3"
       y="142.147"
       x="715.39587"
       style="font-style:normal;font-weight:normal;font-size:59.75578308px;line-height:1.25;font-family:sans-serif;letter-spacing:0px;word-spacing:0px;fill:#000000;fill-opacity:1;stroke:none;stroke-width:1.49389446"
       xml:space="preserve"><tspan
         id="tspan6166"
         style="stroke-width:1.49389446"
         y="142.147"
         x="715.39587"
         sodipodi:role="line">PRODUCT-</tspan><tspan
         id="tspan6173"
         style="stroke-width:1.49389446"
         y="216.84174"
         x="715.39587"
         sodipodi:role="line">LISTINGS-</tspan><tspan
         id="tspan6175"
         style="stroke-width:1.49389446"
         y="291.53647"
         x="715.39587"
         sodipodi:role="line">MANAGER</tspan></text>
  </g>
  <flowRoot
     xml:space="preserve"
     id="flowRoot6152"
     style="fill:black;fill-opacity:1;stroke:none;font-family:sans-serif;font-style:normal;font-weight:normal;font-size:40px;line-height:1.25;letter-spacing:0px;word-spacing:0px"><flowRegion
       id="flowRegion6154"><rect
         id="rect6156"
         width="454.04059"
         height="208.28925"
         x="1531.4504"
         y="191.62024" /></flowRegion><flowPara
       id="flowPara6158"></flowPara></flowRoot>  <text
     xml:space="preserve"
     style="font-style:normal;font-weight:normal;font-size:40px;line-height:1.25;font-family:sans-serif;letter-spacing:0px;word-spacing:0px;fill:#000000;fill-opacity:1;stroke:none"
     x="1287.1976"
     y="247.06413"
     id="text6162"><tspan
       sodipodi:role="line"
       id="tspan6160"
       x="1287.1976"
       y="282.45477" /></text>
  <g
     id="g6222">
    <rect
       style="fill:#0782c2;fill-opacity:1;stroke:#000000;stroke-width:5;stroke-miterlimit:4;stroke-dasharray:none;stroke-opacity:1"
       y="17.074289"
       x="14.984838"
       height="344.65128"
       width="516.97693"
       id="rect3777" />
    <text
       id="text6132-7"
       y="132.06343"
       x="273.90714"
       style="font-style:normal;font-weight:normal;font-size:80.77456665px;line-height:1.25;font-family:sans-serif;text-align:center;letter-spacing:0px;word-spacing:0px;text-anchor:middle;fill:#ffffff;fill-opacity:1;stroke:none;stroke-width:2.01936412;"
       xml:space="preserve"><tspan
         style="text-align:center;text-anchor:middle;stroke-width:2.01936412;fill:#ffffff;fill-opacity:1;"
         y="132.06343"
         x="273.90714"
         id="tspan6130-5"
         sodipodi:role="line">BREWHUB</tspan><tspan
         id="tspan6195"
         style="text-align:center;text-anchor:middle;stroke-width:2.01936412;fill:#ffffff;fill-opacity:1;"
         y="233.03165"
         x="273.90714"
         sodipodi:role="line">(kojihub)</tspan></text>
  </g>
  <g
     id="g6307"
     transform="translate(-14.66673)">
    <rect
       style="fill:#cc2114;fill-opacity:1;stroke:#000000;stroke-width:4.81400108;stroke-miterlimit:4;stroke-dasharray:none;stroke-opacity:1"
       y="17.074289"
       x="1283.0334"
       height="359.63611"
       width="559.79559"
       id="rect3781" />
    <text
       xml:space="preserve"
       style="font-style:normal;font-weight:normal;font-size:80.77456665px;line-height:1.25;font-family:sans-serif;text-align:center;letter-spacing:0px;word-spacing:0px;text-anchor:middle;fill:#ffffff;fill-opacity:1;stroke:none;stroke-width:2.01936412"
       x="1559.283"
       y="130.70958"
       id="text6132-7-6"><tspan
         sodipodi:role="line"
         x="1559.283"
         y="130.70958"
         style="text-align:center;text-anchor:middle;fill:#ffffff;fill-opacity:1;stroke-width:2.01936412"
         id="tspan6195-9">ERRATA</tspan><tspan
         id="tspan6278"
         sodipodi:role="line"
         x="1559.283"
         y="231.6778"
         style="text-align:center;text-anchor:middle;fill:#ffffff;fill-opacity:1;stroke-width:2.01936412">TOOL</tspan></text>
  </g>
  <g
     id="g6312"
     transform="translate(4.0531158e-6)">
    <rect
       style="fill:#811007;fill-opacity:1;stroke:#000000;stroke-width:4.61939287;stroke-miterlimit:4;stroke-dasharray:none;stroke-opacity:1"
       y="16.883986"
       x="1990.8357"
       height="376.50003"
       width="500.87418"
       id="rect3783" />
    <text
       xml:space="preserve"
       style="font-style:normal;font-weight:normal;font-size:80.77456665px;line-height:1.25;font-family:sans-serif;text-align:center;letter-spacing:0px;word-spacing:0px;text-anchor:middle;fill:#ffffff;fill-opacity:1;stroke:none;stroke-width:2.01936412"
       x="2241.687"
       y="132.54463"
       id="text6132-7-6-1"><tspan
         id="tspan6278-7"
         sodipodi:role="line"
         x="2241.687"
         y="132.54463"
         style="text-align:center;text-anchor:middle;fill:#ffffff;fill-opacity:1;stroke-width:2.01936412">PUB...</tspan></text>
  </g>
  <path
     sodipodi:nodetypes="cccccccc"
     inkscape:connector-curvature="0"
     id="path3787-3-6"
     d="m 820.74782,491.61503 h 39.43833 v 73.22505 h 64.6174 v -73.22505 h 43.63824 l -73.84903,-78.79991 z"
     style="color:#000000;font-style:normal;font-variant:normal;font-weight:normal;font-stretch:normal;font-size:medium;line-height:normal;font-family:sans-serif;font-variant-ligatures:normal;font-variant-position:normal;font-variant-caps:normal;font-variant-numeric:normal;font-variant-alternates:normal;font-feature-settings:normal;text-indent:0;text-align:start;text-decoration:none;text-decoration-line:none;text-decoration-style:solid;text-decoration-color:#000000;letter-spacing:normal;word-spacing:normal;text-transform:none;writing-mode:lr-tb;direction:ltr;text-orientation:mixed;dominant-baseline:auto;baseline-shift:baseline;text-anchor:start;white-space:normal;shape-padding:0;clip-rule:nonzero;display:inline;overflow:visible;visibility:visible;opacity:1;isolation:auto;mix-blend-mode:normal;color-interpolation:sRGB;color-interpolation-filters:linearRGB;solid-color:#000000;solid-opacity:1;vector-effect:none;fill:#000000;fill-opacity:1;fill-rule:nonzero;stroke:none;stroke-width:18.46164322;stroke-linecap:butt;stroke-linejoin:miter;stroke-miterlimit:4;stroke-dasharray:none;stroke-dashoffset:0;stroke-opacity:1;color-rendering:auto;image-rendering:auto;shape-rendering:auto;text-rendering:auto;enable-background:accumulate" />
  <text
     id="text6132-7-9"
     y="686.64709"
     x="882.98132"
     style="font-style:normal;font-weight:normal;font-size:80.77456665px;line-height:1.25;font-family:sans-serif;text-align:center;letter-spacing:0px;word-spacing:0px;text-anchor:middle;fill:#000000;fill-opacity:1;stroke:none;stroke-width:2.01936412;"
     xml:space="preserve"><tspan
       id="tspan6195-0"
       style="text-align:center;text-anchor:middle;fill:#000000;fill-opacity:1;stroke-width:2.01936412;"
       y="686.64709"
       x="882.98132"
       sodipodi:role="line">COMPOSEDB</tspan></text>
  <path
     sodipodi:nodetypes="cccccccc"
     inkscape:connector-curvature="0"
     id="path3787-2"
     d="m 449.4363,627.81271 v 43.94359 h -81.58999 v 71.99897 h 81.58999 v 48.62327 l 87.80159,-82.28519 z"
     style="color:#000000;font-style:normal;font-variant:normal;font-weight:normal;font-stretch:normal;font-size:medium;line-height:normal;font-family:sans-serif;font-variant-ligatures:normal;font-variant-position:normal;font-variant-caps:normal;font-variant-numeric:normal;font-variant-alternates:normal;font-feature-settings:normal;text-indent:0;text-align:start;text-decoration:none;text-decoration-line:none;text-decoration-style:solid;text-decoration-color:#000000;letter-spacing:normal;word-spacing:normal;text-transform:none;writing-mode:lr-tb;direction:ltr;text-orientation:mixed;dominant-baseline:auto;baseline-shift:baseline;text-anchor:start;white-space:normal;shape-padding:0;clip-rule:nonzero;display:inline;overflow:visible;visibility:visible;opacity:1;isolation:auto;mix-blend-mode:normal;color-interpolation:sRGB;color-interpolation-filters:linearRGB;solid-color:#000000;solid-opacity:1;vector-effect:none;fill:#000000;fill-opacity:1;fill-rule:nonzero;stroke:none;stroke-width:20.57061577;stroke-linecap:butt;stroke-linejoin:miter;stroke-miterlimit:4;stroke-dasharray:none;stroke-dashoffset:0;stroke-opacity:1;color-rendering:auto;image-rendering:auto;shape-rendering:auto;text-rendering:auto;enable-background:accumulate" />
  <g
     id="g6631"
     transform="matrix(2.9459312,0,0,2.9459312,882.96065,503.29516)">
	<g
   id="g6629">
		<path
   id="path6623"
   d="m 85.817,104.455 c -0.023,0 -0.047,-0.002 -0.07,-0.005 -4.119,-0.582 -7.613,-1.319 -10.387,-2.19 -0.264,-0.082 -0.41,-0.363 -0.326,-0.627 0.082,-0.263 0.359,-0.411 0.627,-0.326 2.721,0.854 6.16,1.579 10.227,2.153 0.273,0.038 0.463,0.292 0.424,0.565 -0.036,0.25 -0.249,0.43 -0.495,0.43 z"
   inkscape:connector-curvature="0" />

		<path
   id="path6625"
   d="m 106.698,106.041 c -4.186,0 -8.299,-0.144 -12.223,-0.427 -0.412,-0.03 -0.723,-0.389 -0.693,-0.802 0.029,-0.414 0.391,-0.72 0.803,-0.694 3.887,0.28 7.963,0.423 12.113,0.423 12.779,0 24.504,-1.348 31.365,-3.604 0.393,-0.13 0.818,0.085 0.947,0.478 0.129,0.394 -0.084,0.817 -0.479,0.946 -7.003,2.305 -18.903,3.68 -31.833,3.68 z"
   inkscape:connector-curvature="0" />

		<path
   id="path6627"
   d="m 106.698,129.217 c -19.133,0 -38.502,-3.057 -38.502,-8.898 V 97.394 c 0,-5.841 19.369,-8.897 38.502,-8.897 19.135,0 38.504,3.056 38.504,8.897 v 22.924 c 0,5.842 -19.369,8.899 -38.504,8.899 z m 0,-38.72 c -22.615,0 -36.502,4.017 -36.502,6.897 v 22.924 c 0,2.881 13.887,6.898 36.502,6.898 22.617,0 36.504,-4.018 36.504,-6.898 V 97.394 c 0,-2.88 -13.887,-6.897 -36.504,-6.897 z"
   inkscape:connector-curvature="0" />

	</g>

</g>
</svg>
